PathFileType	4	(X/Y/Z)	C:/Users/opensim2020/Desktop/walking_exp_matlab/subject03_walking13_straight_02.trc																																																																																																																																								
DataRate	CameraRate	NumFrames	NumMarkers	Units	OrigDataRate	OrigDataStartFrame	OrigNumFrames																																																																																																																																				
100	100	8	46	mm	100	1079	193																																																																																																																																				
Frame#	Time	LFHD			RFHD			LBHD			RBHD			C7			T10			CLAV			STRN			RBAK			LSHO			LUPA			LELB			LFRM			LWRA			LWRB			LFIN			RSHO			RUPA			RELB			RFRM			RWRA			RWRB			RFIN			LASI			RASI			LPSI			RPSI			LTHI			LKNE			LTIB			LANK			LHEE			LTOE			RTHI			RKNE			RTIB			RANK			RHEE			RTOE			*39			*40			*41			*42			*43			*44			*45		
		X1	Y1	Z1	X2	Y2	Z2	X3	Y3	Z3	X4	Y4	Z4	X5	Y5	Z5	X6	Y6	Z6	X7	Y7	Z7	X8	Y8	Z8	X9	Y9	Z9	X10	Y10	Z10	X11	Y11	Z11	X12	Y12	Z12	X13	Y13	Z13	X14	Y14	Z14	X15	Y15	Z15	X16	Y16	Z16	X17	Y17	Z17	X18	Y18	Z18	X19	Y19	Z19	X20	Y20	Z20	X21	Y21	Z21	X22	Y22	Z22	X23	Y23	Z23	X24	Y24	Z24	X25	Y25	Z25	X26	Y26	Z26	X27	Y27	Z27	X28	Y28	Z28	X29	Y29	Z29	X30	Y30	Z30	X31	Y31	Z31	X32	Y32	Z32	X33	Y33	Z33	X34	Y34	Z34	X35	Y35	Z35	X36	Y36	Z36	X37	Y37	Z37	X38	Y38	Z38	X39	Y39	Z39	X40	Y40	Z40	X41	Y41	Z41	X42	Y42	Z42	X43	Y43	Z43	X44	Y44	Z44	X45	Y45	Z45	X46	Y46	Z46
																																																																																																																																											
1	0	-1347.32947	1629.59839	-1416.5	-1362.81726	1626.03955	-1284.43494	-1474.60681	1585.47571	-1429.51807	-1484.90955	1581.60266	-1298.7998	-1509.58472	1420.68445	-1372.57764	-1542.99658	1108.40466	-1380.4751	-1387.84985	1345.23804	-1376.22705	-1342.60632	1180.63037	-1389.11975	-1560.42554	1241.06543	-1283.19287	-1437.71191	1389.24292	-1528.45435	-1433.70227	1204.8374	-1620.69092	-1403.3241	1092.46667	-1646.58167	-1306.82544	1014.21088	-1642.45679	-1213.48816	949.75439	-1604.6908	-1232.427	929.01532	-1651.70752	-1157.93945	897.55981	-1643.14331	-1433.15735	1364.22888	-1215.57532	-1424.7489	1140.07666	-1148.14758	-1405.27441	1028.39221	-1137.83301	-1384.39282	892.99585	-1138.73364	-1353.74475	798.94122	-1177.96936	-1382.45935	792.12701	-1131.98816	-1364.04053	719.83673	-1148.50427	-1385.68506	945.55811	-1509.27258	-1368.82288	942.70624	-1271.55249	-1544.77917	963.52844	-1448.40808	-1532.98022	972.99402	-1299.84155	-1404.89343	645.33771	-1572.99768	-1369.30652	468.30118	-1564.24231	-1522.34436	345.04395	-1554.36169	-1670.9574	203.67274	-1508.99695	-1718.48401	205.2012	-1462.20251	-1600.15479	71.80669	-1508.71216	-1407.68213	644.30304	-1246.48279	-1384.90234	472.2171	-1302.58105	-1428.81873	282.10614	-1309.50696	-1459.28223	72.2532	-1372.49829	-1504.31726	41.85522	-1424.16309	-1318.56409	37.65804	-1391.0127	NaN	NaN	NaN	-1435.45764	1685.40234	-1372.04834	NaN	NaN	NaN	NaN	NaN	NaN	NaN	NaN	NaN	NaN	NaN	NaN	NaN	NaN	NaN
2	0.01	-1335.26917	1630.3855	-1417.72681	-1350.8208	1626.8877	-1285.72266	-1462.59497	1586.43481	-1430.9436	-1473.03687	1582.53015	-1300.18799	-1497.73975	1421.65137	-1373.86353	-1531.26929	1109.42639	-1380.94153	-1376.11011	1346.07642	-1377.53601	-1331.01477	1181.39172	-1390.01978	-1548.45593	1242.18237	-1284.00366	-1426.52393	1390.03345	-1529.91321	-1425.04053	1204.62463	-1620.91821	-1395.97693	1091.27417	-1645.70313	-1301.4137	1010.92755	-1641.57935	-1209.54993	944.22375	-1603.62878	-1228.94373	923.96619	-1650.73132	-1155.27661	889.95361	-1641.29285	-1421.22156	1365.39099	-1216.86316	-1410.76526	1141.63611	-1149.39087	-1389.88428	1030.26672	-1139.4176	-1367.08179	895.25867	-1140.42053	-1335.1283	801.98303	-1179.63586	-1363.47241	794.39325	-1133.92676	-1343.34045	722.64917	-1150.53308	-1373.41638	947.64093	-1509.44714	-1357.92615	943.1972	-1271.94702	-1532.91077	965.19098	-1449.71216	-1521.53845	973.89716	-1300.98157	-1385.77869	647.63806	-1573.13171	-1345.8822	471.40692	-1563.1958	-1495.49402	344.02762	-1555.80566	-1640.29993	197.60603	-1512.57104	-1689.50781	196.99562	-1467.20532	-1562.96997	70.10412	-1510.6543	-1400.4884	644.24579	-1247.74219	-1381.60071	471.72748	-1303.1958	-1427.3551	282.25125	-1310.03857	-1459.06201	72.46436	-1372.80481	-1504.37451	41.97211	-1424.27356	-1318.62842	37.65587	-1390.94983	NaN	NaN	NaN	-1423.41187	1686.28821	-1373.38074	NaN	NaN	NaN	NaN	NaN	NaN	NaN	NaN	NaN	NaN	NaN	NaN	NaN	NaN	NaN
3	0.02	-1323.22253	1630.93066	-1418.89893	-1338.8634	1627.44507	-1286.89844	-1450.47571	1587.073	-1432.15503	-1461.08557	1583.2384	-1301.4823	-1485.96008	1422.45068	-1375.16736	-1519.62109	1110.26978	-1381.53564	-1364.38147	1346.76733	-1378.79724	-1319.43896	1182.10156	-1390.92651	-1536.62012	1243.33325	-1284.87585	-1415.2052	1390.61072	-1531.24561	-1416.21655	1204.22888	-1621.08838	-1388.96069	1090.35413	-1645.2439	-1296.06982	1007.24805	-1640.73035	-1205.9624	938.15436	-1602.66162	-1225.79504	918.5177	-1649.91931	-1153.21057	881.70679	-1639.63391	-1409.474	1366.5918	-1218.17297	-1396.95276	1143.04004	-1150.55261	-1374.75549	1032.01355	-1140.83972	-1349.56848	897.54749	-1142.09473	-1316.50464	804.89941	-1181.64417	-1344.48328	796.73303	-1135.84558	-1322.85339	725.52991	-1152.3125	-1361.04993	949.40564	-1509.61572	-1347.05994	943.68011	-1272.35535	-1520.9353	966.68994	-1451.08972	-1510.07874	974.68042	-1302.21814	-1367.23279	650.01636	-1573.16724	-1323.19055	475.01151	-1562.13501	-1468.22693	342.15036	-1557.12622	-1609.11511	190.94479	-1516.31104	-1659.34192	187.63205	-1472.14282	-1524.87122	67.90669	-1512.45044	-1394.20288	644.25378	-1248.78857	-1378.16528	471.17728	-1303.80884	-1425.60583	282.36551	-1310.5365	-1459.04761	72.51746	-1372.90552	-1504.3678	42.04912	-1424.48621	-1318.66138	37.661	-1390.89502	NaN	NaN	NaN	-1411.3009	1686.96692	-1374.86487	NaN	NaN	NaN	NaN	NaN	NaN	NaN	NaN	NaN	NaN	NaN	NaN	NaN	NaN	NaN
4	0.03	-1311.1322	1631.28198	-1420.13379	-1326.94604	1627.80823	-1288.18494	-1438.37256	1587.49243	-1433.349	-1449.14941	1583.74939	-1302.79285	-1474.12769	1422.99316	-1376.39417	-1508.04736	1110.89758	-1382.19604	-1352.64368	1347.22327	-1380.02588	-1307.96521	1182.53967	-1391.79016	-1524.80725	1244.35437	-1285.58557	-1403.71484	1390.87817	-1532.54919	-1407.25159	1203.60852	-1621.12708	-1381.73474	1088.85986	-1644.29761	-1290.96289	1003.29669	-1639.96826	-1202.62891	931.62891	-1601.81323	-1223.01807	912.59796	-1649.13721	-1151.73389	872.78931	-1638.21326	-1397.59656	1367.44409	-1219.43201	-1383.43115	1144.35596	-1151.60498	-1359.88367	1033.65173	-1142.12939	-1332.41797	899.54077	-1143.88367	-1298.30554	807.46362	-1184.18689	-1325.40161	798.94568	-1137.84497	-1301.46045	728.26581	-1154.58887	-1348.65857	950.91266	-1509.74695	-1336.18579	943.65857	-1272.67627	-1508.8501	967.90765	-1452.49719	-1498.68298	975.22351	-1303.42749	-1349.17456	652.23096	-1573.17847	-1300.91113	478.33243	-1560.74011	-1440.49634	339.44092	-1557.97363	-1576.73108	183.11282	-1519.65771	-1627.78015	177.04283	-1476.35913	-1485.95264	65.30508	-1514.18567	-1387.70581	644.04828	-1249.88403	-1374.64246	470.56921	-1304.37927	-1423.83777	282.50159	-1310.98767	-1459.0271	72.9947	-1373.1488	-1504.40149	42.23853	-1424.62183	-1318.66895	37.64688	-1390.84143	NaN	NaN	NaN	-1399.22546	1687.4425	-1376.16992	NaN	NaN	NaN	NaN	NaN	NaN	NaN	NaN	NaN	NaN	NaN	NaN	NaN	NaN	NaN
5	0.04	-1299.07068	1631.3689	-1421.41187	-1314.95032	1628.00635	-1289.4469	-1426.50415	1587.81885	-1435.02356	-1437.2572	1584.0719	-1304.22827	-1462.29858	1423.33655	-1377.71777	-1496.44153	1111.30554	-1382.91504	-1340.90015	1347.49744	-1381.28418	-1296.35535	1182.65796	-1392.52991	-1512.95398	1245.08667	-1286.17029	-1392.1189	1390.90063	-1533.81628	-1398.05505	1202.71448	-1621.07275	-1374.42883	1087.06982	-1643.33044	-1285.87695	998.9472	-1639.13245	-1199.5083	924.57391	-1601.11646	-1220.68774	906.26074	-1648.4718	-1150.84448	863.28607	-1636.93286	-1385.84241	1368.20508	-1220.78662	-1370.12854	1145.38428	-1152.48157	-1345.31494	1035.05298	-1143.17639	-1315.25098	901.5614	-1145.26831	-1279.3252	810.56305	-1185.93286	-1306.45544	801.14264	-1139.87573	-1280.77808	731.05298	-1156.62476	-1336.30103	952.06775	-1509.90991	-1324.56995	943.61023	-1272.33203	-1496.75525	968.84491	-1453.87	-1487.50391	975.66394	-1304.73596	-1331.58508	654.25586	-1573.20044	-1279.17004	481.38031	-1559.08704	-1413.10559	336.56845	-1558.9585	-1543.49915	174.49692	-1522.5675	-1594.99414	165.45631	-1480.12549	-1446.05005	62.40047	-1515.75806	-1380.58691	643.79962	-1251.14111	-1371.1405	470.01334	-1304.75488	-1422.06641	282.6329	-1311.38	-1458.83423	72.96703	-1373.45264	-1504.55798	42.54404	-1424.7832	-1318.66443	37.71013	-1390.67432	NaN	NaN	NaN	-1387.06958	1687.76917	-1377.80737	NaN	NaN	NaN	NaN	NaN	NaN	NaN	NaN	NaN	NaN	NaN	NaN	NaN	NaN	NaN
6	0.05	-1286.9967	1631.15381	-1422.65259	-1303.05408	1627.92493	-1290.73499	-1414.38428	1587.69141	-1436.29028	-1425.38135	1584.09863	-1305.65967	-1450.39893	1423.33923	-1378.84412	-1484.83411	1111.41272	-1383.70422	-1329.15405	1347.44287	-1382.39868	-1284.82031	1182.70142	-1393.38135	-1501.04077	1245.56995	-1286.70227	-1380.38135	1390.55188	-1535.01685	-1388.77014	1201.60645	-1621.07947	-1367.13354	1085.19751	-1642.54736	-1280.95508	994.28467	-1638.37488	-1196.73682	917.16876	-1600.60034	-1218.70251	899.41241	-1647.80774	-1150.62659	853.25293	-1635.92432	-1374.31726	1368.79797	-1222.18604	-1356.93799	1146.20471	-1153.27722	-1330.97168	1036.2179	-1144.02661	-1298.55078	903.38715	-1146.92603	-1260.68274	813.35718	-1188.00452	-1287.49634	803.17688	-1141.90369	-1260.07227	733.85876	-1158.98206	-1323.86597	952.76501	-1510.05432	-1314.75195	943.29138	-1273.38586	-1484.6145	969.42841	-1455.35522	-1476.22534	975.70715	-1306.00562	-1314.32861	656.08002	-1573.1803	-1258.46216	484.55316	-1557.76111	-1385.83105	333.29446	-1559.65967	-1508.91711	164.75116	-1524.85547	-1561.01709	153.13625	-1483.35815	-1405.42444	59.23232	-1517.14294	-1373.69971	643.51929	-1252.24109	-1367.5769	469.30585	-1305.02124	-1420.37512	282.8139	-1311.66943	-1458.76563	73.15532	-1373.69702	-1504.48242	42.81263	-1424.98657	-1318.62891	37.68817	-1390.58105	NaN	NaN	NaN	-1374.9032	1687.62769	-1379.29443	NaN	NaN	NaN	NaN	NaN	NaN	NaN	NaN	NaN	NaN	NaN	NaN	NaN	NaN	NaN
7	0.06	-1274.89453	1630.67871	-1423.92761	-1291.03882	1627.55188	-1292.11072	-1402.22815	1587.2356	-1437.44788	-1413.40479	1583.81567	-1307.03918	-1438.53918	1423.11487	-1380.14404	-1473.19983	1111.28748	-1384.57922	-1317.33813	1347.04456	-1383.53381	-1272.56323	1182.3064	-1393.88074	-1489.20117	1245.65637	-1287.14954	-1368.52246	1389.92151	-1536.26514	-1379.23218	1200.22168	-1621.05676	-1359.65991	1083.02332	-1641.62964	-1276.07654	989.26453	-1637.62036	-1194.22424	909.16333	-1600.20398	-1217.03369	892.23633	-1647.30957	-1151.07593	842.79791	-1635.17566	-1362.15625	1368.85999	-1223.32935	-1344.0769	1146.71545	-1153.88049	-1316.57324	1037.08777	-1144.75586	-1281.5708	904.96936	-1148.11938	-1242.26978	815.98541	-1190.375	-1268.59106	804.97064	-1144.04041	-1239.64697	736.50793	-1161.31165	-1311.04102	953.12329	-1509.94763	-1303.79285	942.56726	-1273.70117	-1472.45569	969.5882	-1456.79333	-1465.0542	975.54425	-1307.34729	-1297.36511	657.58301	-1573.16846	-1238.36438	487.22925	-1556.22095	-1358.83276	329.77933	-1560.12976	-1473.93896	155.32048	-1527.29993	-1525.80469	140.20758	-1486.34729	-1364.13794	56.34377	-1518.44202	-1366.42102	643.04523	-1253.50525	-1363.79785	468.52756	-1305.21985	-1418.45862	282.86401	-1312.03711	-1458.62244	73.4825	-1373.67554	-1504.43457	43.26111	-1425.22668	-1318.63599	37.66141	-1390.43579	NaN	NaN	NaN	-1362.84302	1687.35522	-1380.94629	NaN	NaN	NaN	NaN	NaN	NaN	NaN	NaN	NaN	NaN	NaN	NaN	NaN	NaN	NaN
8	0.07	-1262.78613	1629.97681	-1425.26208	-1279.11987	1626.93066	-1293.34497	-1390.34143	1586.71973	-1439.22327	-1401.43835	1583.29187	-1308.49963	-1426.57141	1422.56726	-1381.35925	-1461.4718	1110.82861	-1385.46741	-1305.50354	1346.43079	-1384.64233	-1260.38232	1181.88708	-1394.52136	-1477.34973	1245.44556	-1287.71729	-1356.54895	1388.92456	-1537.45654	-1369.48206	1198.52502	-1620.98389	-1352.10229	1080.7644	-1640.88867	-1271.22986	983.8208	-1636.88147	-1191.89795	900.69958	-1599.79016	-1215.8949	884.63983	-1646.83276	-1152.16016	831.97296	-1634.67932	-1350.33203	1368.61279	-1224.46875	-1330.93848	1146.80652	-1154.3844	-1302.14099	1037.56885	-1145.43188	-1265.00671	906.30579	-1149.72192	-1223.49573	818.50531	-1192.03711	-1249.82349	806.63232	-1146.15369	-1219.09314	739.04193	-1163.60095	-1298.59106	953.19806	-1510.18433	-1292.65894	941.78131	-1273.96741	-1460.28735	969.3208	-1458.36182	-1453.9552	974.97327	-1308.70898	-1280.7655	658.85486	-1573.22363	-1219.10254	489.6012	-1554.81628	-1332.14868	326.06088	-1560.54126	-1437.90845	145.20502	-1529.34741	-1489.44788	127.16524	-1489.23657	-1322.25647	53.56738	-1519.48413	-1359.61023	642.53705	-1254.00562	-1359.55164	467.65329	-1305.54333	-1416.20313	282.86432	-1312.45898	-1458.53589	73.8179	-1374.09509	-1504.33801	43.66262	-1425.56494	-1318.61182	37.7374	-1390.19141	NaN	NaN	NaN	-1350.86633	1686.56641	-1381.78516	NaN	NaN	NaN	NaN	NaN	NaN	NaN	NaN	NaN	NaN	NaN	NaN	NaN	NaN	NaN
